<svg width="44" height="49" viewBox="0 0 44 49" fill="none" xmlns="http://www.w3.org/2000/svg">
<path d="M28.8195 23.275C28.8195 24.7695 27.717 25.9945 26.3205 25.9945C24.9485 25.9945 23.8215 24.7695 23.8215 23.275C23.8215 21.7805 24.924 20.5555 26.3205 20.5555C27.717 20.5555 28.8195 21.7805 28.8195 23.275ZM17.378 20.5555C15.9815 20.5555 14.879 21.7805 14.879 23.275C14.879 24.7695 16.006 25.9945 17.378 25.9945C18.7745 25.9945 19.877 24.7695 19.877 23.275C19.9015 21.7805 18.7745 20.5555 17.378 20.5555ZM43.25 5.047V49C37.0777 43.5455 39.0517 45.351 31.882 38.6855L33.1805 43.218H5.3975C2.629 43.218 0.375 40.964 0.375 38.171V5.047C0.375 2.254 2.629 0 5.3975 0H38.2275C40.996 0 43.25 2.254 43.25 5.047ZM36.2675 28.273C36.2675 20.384 32.7395 13.9895 32.7395 13.9895C29.2115 11.3435 25.855 11.417 25.855 11.417L25.512 11.809C29.677 13.083 31.6125 14.9205 31.6125 14.9205C25.7927 11.7308 18.9563 11.7302 13.311 14.21C12.4045 14.6265 11.8655 14.9205 11.8655 14.9205C11.8655 14.9205 13.899 12.985 18.309 11.711L18.064 11.417C18.064 11.417 14.7075 11.3435 11.1795 13.9895C11.1795 13.9895 7.6515 20.384 7.6515 28.273C7.6515 28.273 9.7095 31.8255 15.124 31.997C15.124 31.997 16.0305 30.8945 16.7655 29.9635C13.654 29.0325 12.478 27.0725 12.478 27.0725C12.8384 27.3248 13.4327 27.6518 13.4825 27.685C17.6178 30.0008 23.4919 30.7596 28.7705 28.5425C29.628 28.224 30.5835 27.7585 31.588 27.097C31.588 27.097 30.363 29.106 27.1535 30.0125C27.8885 30.9435 28.7705 31.997 28.7705 31.997C34.185 31.8255 36.2675 28.273 36.2675 28.273Z" fill="white"/>
</svg>
