<svg width="43" height="42" viewBox="0 0 43 42" fill="none" xmlns="http://www.w3.org/2000/svg">
<path d="M14.3406 33.6603C14.3406 33.8332 14.1418 33.9715 13.8912 33.9715C13.6059 33.9975 13.4071 33.8592 13.4071 33.6603C13.4071 33.4875 13.6059 33.3491 13.8566 33.3491C14.1159 33.3232 14.3406 33.4615 14.3406 33.6603ZM11.6523 33.2713C11.5918 33.4442 11.7647 33.643 12.024 33.6949C12.2488 33.7814 12.5081 33.6949 12.56 33.522C12.6118 33.3491 12.4476 33.1503 12.1883 33.0725C11.9635 33.012 11.7128 33.0985 11.6523 33.2713ZM15.473 33.1244C15.2224 33.1849 15.0495 33.3491 15.0754 33.548C15.1013 33.7208 15.3261 33.8332 15.5854 33.7727C15.8361 33.7122 16.009 33.548 15.983 33.3751C15.9571 33.2108 15.7237 33.0985 15.473 33.1244ZM21.1609 0C9.17145 0 0 9.10229 0 21.0917C0 30.6781 6.03362 38.8814 14.6518 41.7686C15.7583 41.9674 16.1473 41.2845 16.1473 40.7226C16.1473 40.1867 16.1213 37.2304 16.1213 35.4151C16.1213 35.4151 10.0704 36.7117 8.79975 32.8391C8.79975 32.8391 7.81431 30.3237 6.39667 29.6754C6.39667 29.6754 4.41716 28.3182 6.53498 28.3442C6.53498 28.3442 8.68737 28.5171 9.87162 30.5744C11.7647 33.911 14.9371 32.9515 16.1732 32.381C16.372 30.9979 16.9339 30.0384 17.5563 29.4679C12.7242 28.932 7.84889 28.2318 7.84889 19.9161C7.84889 17.539 8.50585 16.3461 9.88891 14.8247C9.66416 14.2629 8.92941 11.9462 10.1137 8.95534C11.9203 8.39347 16.0781 11.2893 16.0781 11.2893C17.807 10.8052 19.6654 10.5545 21.5067 10.5545C23.3479 10.5545 25.2064 10.8052 26.9352 11.2893C26.9352 11.2893 31.093 8.38483 32.8996 8.95534C34.0839 11.9549 33.3491 14.2629 33.1244 14.8247C34.5075 16.3547 35.3546 17.5476 35.3546 19.9161C35.3546 28.2577 30.2632 28.9233 25.4311 29.4679C26.2264 30.1508 26.9006 31.4474 26.9006 33.4788C26.9006 36.3919 26.8747 39.9965 26.8747 40.7053C26.8747 41.2672 27.2723 41.9501 28.3701 41.7513C37.0143 38.8814 42.875 30.6781 42.875 21.0917C42.875 9.10229 33.1503 0 21.1609 0ZM8.40212 29.8137C8.28974 29.9001 8.31568 30.0989 8.46263 30.2632C8.60093 30.4015 8.79975 30.462 8.91212 30.3496C9.0245 30.2632 8.99856 30.0644 8.85161 29.9001C8.71331 29.7618 8.51449 29.7013 8.40212 29.8137ZM7.46855 29.1135C7.40804 29.2259 7.49448 29.3642 7.66736 29.4506C7.80567 29.5371 7.97855 29.5111 8.03906 29.3901C8.09957 29.2777 8.01313 29.1394 7.84025 29.053C7.66736 29.0011 7.52906 29.0271 7.46855 29.1135ZM10.2693 32.1908C10.1309 32.3032 10.1828 32.5625 10.3816 32.7268C10.5804 32.9256 10.8311 32.9515 10.9435 32.8132C11.0559 32.7008 11.004 32.4415 10.8311 32.2773C10.641 32.0785 10.3816 32.0525 10.2693 32.1908ZM9.28382 30.9201C9.14551 31.0066 9.14551 31.2313 9.28382 31.4301C9.42213 31.629 9.65552 31.7154 9.76789 31.629C9.9062 31.5166 9.9062 31.2918 9.76789 31.093C9.64687 30.8942 9.42213 30.8078 9.28382 30.9201Z" fill="white"/>
</svg>
