<svg width="32" height="35" viewBox="0 0 32 35" fill="none" xmlns="http://www.w3.org/2000/svg">
<path d="M15.9931 35C15.5282 35 15.0564 34.875 14.647 34.6389L10.3662 32.1039C9.72784 31.7427 10.0401 31.6177 10.2482 31.5483C11.1016 31.2496 11.2751 31.1871 12.184 30.6662C12.2811 30.6107 12.406 30.6315 12.5031 30.694L15.7919 32.6456C15.9098 32.7151 16.0763 32.7151 16.1873 32.6456L29.0022 25.2421C29.1202 25.1726 29.1965 25.0337 29.1965 24.8948V10.0878C29.1965 9.94196 29.1202 9.81 28.9953 9.7336L16.1873 2.33704C16.0694 2.26759 15.9098 2.26759 15.7919 2.33704L2.99082 9.74055C2.86594 9.81 2.78961 9.9489 2.78961 10.0948V24.8948C2.78961 25.0337 2.86594 25.1726 2.99082 25.2351L6.50157 27.2631C8.40958 28.2146 9.5752 27.0964 9.5752 25.9644V11.3518C9.5752 11.1435 9.74172 10.9837 9.94987 10.9837H11.5734C11.7746 10.9837 11.9481 11.1435 11.9481 11.3518V25.9713C11.9481 28.5132 10.5604 29.9717 8.15286 29.9717C7.41047 29.9717 6.82766 29.9717 5.20412 29.1661L1.84602 27.2284C1.01343 26.7492 0.5 25.8533 0.5 24.8879V10.0878C0.5 9.12938 1.01343 8.22651 1.84602 7.7473L14.647 0.343784C15.4588 -0.114595 16.5342 -0.114595 17.3391 0.343784L30.154 7.75424C30.9866 8.23346 31.5 9.12938 31.5 10.0948V24.8948C31.5 25.8533 30.9866 26.7492 30.154 27.2353L17.3391 34.6389C16.9297 34.875 16.4649 35 15.9931 35ZM26.338 20.4083C26.338 17.6372 24.4646 16.901 20.5307 16.3801C16.5481 15.8523 16.1457 15.5814 16.1457 14.6508C16.1457 13.8798 16.4857 12.852 19.4344 12.852C22.064 12.852 23.0354 13.4215 23.4378 15.1994C23.4725 15.3661 23.6251 15.4911 23.7986 15.4911H25.4637C25.5678 15.4911 25.6649 15.4494 25.7343 15.3731C25.8037 15.2967 25.8384 15.1925 25.8315 15.0883C25.5748 12.0255 23.5419 10.6017 19.4344 10.6017C15.778 10.6017 13.5994 12.1436 13.5994 14.7341C13.5994 17.5399 15.771 18.3178 19.2748 18.665C23.4725 19.0748 23.7986 19.6929 23.7986 20.5194C23.7986 21.9501 22.6468 22.5613 19.9479 22.5613C16.5551 22.5613 15.8127 21.707 15.5629 20.0193C15.5351 19.8388 15.3825 19.7068 15.1952 19.7068H13.5369C13.3288 19.7068 13.1692 19.8735 13.1692 20.0749C13.1692 22.2348 14.3418 24.8115 19.9548 24.8115C24.0067 24.8045 26.338 23.2002 26.338 20.4083Z" fill="white"/>
</svg>
