<svg width="35" height="35" viewBox="0 0 35 35" fill="none" xmlns="http://www.w3.org/2000/svg">
<path d="M34.3583 13.1637C33.7567 10.7497 32.6161 8.92948 30.1865 8.92948H27.0538V12.6325C27.0538 15.5074 24.6164 17.9292 21.8352 17.9292H13.4918C11.2106 17.9292 9.32005 19.8822 9.32005 22.1712V30.1241C9.32005 32.3896 11.2887 33.7177 13.4918 34.3661C16.1323 35.1395 18.6713 35.2801 21.8352 34.3661C23.9367 33.7568 26.007 32.5302 26.007 30.1241V26.9445H17.6713V25.882H30.1865C32.6161 25.882 33.5145 24.1868 34.3583 21.6478C35.2332 19.0307 35.1942 16.5152 34.3583 13.1637ZM22.3587 29.0616C23.2258 29.0616 23.9289 29.7725 23.9289 30.6475C23.9289 31.5303 23.2258 32.2412 22.3587 32.2412C21.4993 32.2412 20.7884 31.5225 20.7884 30.6475C20.7962 29.7647 21.4993 29.0616 22.3587 29.0616ZM13.109 16.8823H21.4525C23.7727 16.8823 25.6242 14.9683 25.6242 12.6403V4.67963C25.6242 2.41408 23.718 0.718826 21.4525 0.336027C18.6557 -0.124895 15.6167 -0.101458 13.109 0.343839C9.57786 0.968818 8.93725 2.27346 8.93725 4.68744V7.86702H17.2885V8.92948H5.80455C3.37494 8.92948 1.25002 10.3904 0.585976 13.1637C-0.179623 16.3433 -0.210872 18.3276 0.585976 21.6478C1.17971 24.1165 2.59372 25.882 5.02332 25.882H7.89041V22.0697C7.89041 19.3119 10.2731 16.8823 13.109 16.8823ZM12.5856 5.74209C11.7184 5.74209 11.0153 5.03118 11.0153 4.15621C11.0231 3.27343 11.7184 2.56251 12.5856 2.56251C13.4449 2.56251 14.1558 3.28124 14.1558 4.15621C14.1558 5.03118 13.4527 5.74209 12.5856 5.74209Z" fill="white"/>
</svg>
