<svg width="36" height="31" viewBox="0 0 36 31" fill="none" xmlns="http://www.w3.org/2000/svg">
<path d="M29.0879 10.0459C28.7188 9.92137 28.3496 9.80374 27.9805 9.69304C28.042 9.43702 28.0967 9.18101 28.1514 8.925C28.9922 4.80111 28.4385 1.48678 26.5723 0.393533C24.7744 -0.651277 21.8418 0.435049 18.875 3.05053C18.5811 3.30655 18.2939 3.5764 18.0205 3.84625C17.8359 3.66635 17.6445 3.48645 17.4531 3.31347C14.3428 0.51808 11.2256 -0.658196 9.35938 0.441968C7.56836 1.4937 7.03516 4.61429 7.78711 8.51676C7.8623 8.90424 7.94434 9.2848 8.04004 9.67228C7.60254 9.79683 7.17187 9.93521 6.76855 10.0805C3.11816 11.3606 0.5 13.381 0.5 15.4706C0.5 17.6294 3.28906 19.7952 7.08301 21.1098C7.39063 21.2136 7.69824 21.3174 8.0127 21.4074C7.91016 21.8225 7.82129 22.2308 7.73926 22.6528C7.02148 26.493 7.58203 29.5375 9.37305 30.5823C11.2188 31.6617 14.3223 30.5546 17.3437 27.8769C17.583 27.6624 17.8223 27.441 18.0615 27.2057C18.3623 27.5032 18.6768 27.7869 18.9912 28.0637C21.917 30.61 24.8086 31.641 26.5928 30.5962C28.4385 29.5168 29.04 26.2439 28.2607 22.2584C28.1992 21.954 28.1309 21.6426 28.0557 21.3243C28.2744 21.2621 28.4863 21.1929 28.6982 21.1237C32.6426 19.8021 35.5 17.664 35.5 15.4706C35.5 13.3741 32.8066 11.3398 29.0879 10.0459ZM19.8389 4.17146C22.3818 1.92961 24.7539 1.05086 25.834 1.68052C26.9893 2.35169 27.4336 5.06404 26.709 8.62747C26.6611 8.86272 26.6133 9.09106 26.5518 9.31939C25.0342 8.97343 23.4961 8.72434 21.9512 8.58595C21.0625 7.29897 20.0918 6.06734 19.0391 4.91182C19.3057 4.65581 19.5654 4.41363 19.8389 4.17146ZM11.9297 19.0617C12.2783 19.6637 12.6338 20.2657 13.0098 20.8538C11.9434 20.7362 10.8838 20.5632 9.83789 20.3349C10.1387 19.3385 10.5146 18.3075 10.9521 17.2558C11.2666 17.8647 11.5879 18.4667 11.9297 19.0617ZM9.8584 10.7378C10.8428 10.5164 11.8887 10.3365 12.9756 10.1981C12.6133 10.7724 12.2578 11.3606 11.9229 11.9556C11.5879 12.5438 11.2598 13.1458 10.9521 13.7546C10.5215 12.7237 10.1592 11.7135 9.8584 10.7378ZM11.7314 15.5052C12.1826 14.5504 12.6748 13.6163 13.1943 12.696C13.7139 11.7757 14.2744 10.8832 14.8623 10.0044C15.8877 9.92829 16.9336 9.88677 18 9.88677C19.0664 9.88677 20.1191 9.92829 21.1377 10.0044C21.7187 10.8762 22.2725 11.7688 22.7988 12.6822C23.3252 13.5955 23.8174 14.5296 24.2822 15.4775C23.8242 16.4324 23.332 17.3734 22.8057 18.3006C22.2861 19.2209 21.7324 20.1135 21.1514 20.9991C20.1328 21.0752 19.0732 21.1098 18 21.1098C16.9268 21.1098 15.8877 21.0752 14.8828 21.013C14.2881 20.1342 13.7275 19.2347 13.2012 18.3145C12.6748 17.3942 12.1895 16.4601 11.7314 15.5052ZM24.0771 19.0479C24.4258 18.439 24.7539 17.8232 25.0752 17.2004C25.5127 18.2037 25.8955 19.2209 26.2305 20.2657C25.1709 20.5079 24.0977 20.6947 23.0176 20.8192C23.3867 20.238 23.7354 19.6429 24.0771 19.0479ZM25.0615 13.7546C24.7402 13.1458 24.4121 12.5369 24.0703 11.9418C23.7354 11.3537 23.3867 10.7724 23.0244 10.1981C24.125 10.3365 25.1777 10.5233 26.1621 10.7517C25.8477 11.7757 25.4785 12.7721 25.0615 13.7546ZM18.0137 5.97047C18.7314 6.75926 19.4082 7.58958 20.0371 8.44757C18.6836 8.38529 17.3232 8.38529 15.9697 8.44757C16.6396 7.55498 17.3301 6.72467 18.0137 5.97047ZM10.084 1.72895C11.2324 1.05086 13.7822 2.01956 16.4688 4.42747C16.6396 4.57969 16.8105 4.74576 16.9883 4.91182C15.9287 6.06734 14.9512 7.29897 14.0557 8.58595C12.5107 8.72434 10.9795 8.96651 9.46191 9.30556C9.37305 8.95267 9.29785 8.59287 9.22266 8.23307C8.58008 4.88414 9.00391 2.35861 10.084 1.72895ZM8.40918 19.9682C8.12207 19.8851 7.8418 19.7952 7.56152 19.6983C6.10547 19.2347 4.45117 18.5013 3.25488 17.5395C2.56445 17.0551 2.09961 16.3079 1.96973 15.4706C1.96973 14.2044 4.12988 12.5853 7.24707 11.4851C7.63672 11.3467 8.0332 11.2222 8.42969 11.1046C8.89453 12.606 9.45508 14.0799 10.1045 15.5052C9.44824 16.9514 8.88086 18.4459 8.40918 19.9682ZM16.3799 26.749C15.252 27.7939 13.9463 28.6242 12.5244 29.1915C11.7656 29.5583 10.8906 29.5929 10.1113 29.2815C9.02441 28.6449 8.57324 26.2024 9.18848 22.9158C9.26367 22.5283 9.3457 22.1408 9.44141 21.7602C10.9727 22.0924 12.5176 22.3207 14.083 22.4383C14.9854 23.7322 15.9766 24.9708 17.0361 26.1332C16.8174 26.3477 16.5986 26.5553 16.3799 26.749ZM18.0547 25.0677C17.3574 24.3065 16.6602 23.4624 15.9834 22.556C16.6396 22.5836 17.3164 22.5975 18 22.5975C18.7041 22.5975 19.3945 22.5836 20.0781 22.549C19.4492 23.4278 18.7725 24.265 18.0547 25.0677ZM26.9893 27.1434C26.9277 27.9876 26.5176 28.7764 25.8613 29.3092C24.7744 29.9457 22.457 29.1154 19.9551 26.9428C19.668 26.6937 19.3809 26.4238 19.0869 26.1471C20.1328 24.9777 21.0967 23.7392 21.9717 22.4383C23.5371 22.3069 25.0957 22.0647 26.6338 21.7118C26.7021 21.9955 26.7637 22.2792 26.8184 22.556C27.1533 24.0505 27.208 25.6074 26.9893 27.1434ZM28.2334 19.7052C28.042 19.7675 27.8506 19.8298 27.6523 19.8851C27.1738 18.3767 26.5859 16.9029 25.9092 15.4706C26.5654 14.0591 27.1191 12.606 27.584 11.1184C27.9395 11.2222 28.2813 11.3329 28.6094 11.4436C31.7949 12.5507 34.0303 14.1975 34.0303 15.4568C34.0303 16.813 31.6445 18.5635 28.2334 19.7052ZM18 18.6673C19.7295 18.6673 21.1309 17.2489 21.1309 15.4983C21.1309 13.7477 19.7295 12.3293 18 12.3293C16.2705 12.3293 14.8691 13.7477 14.8691 15.4983C14.8691 17.2489 16.2705 18.6673 18 18.6673Z" fill="white"/>
</svg>
